ISO-10303-21;
HEADER;
/* Generated by software containing ST-Developer
 * from STEP Tools, Inc. (www.steptools.com) 
 */

FILE_DESCRIPTION(
/* description */ (''),
/* implementation_level */ '2;1');

FILE_NAME(
/* name */ 'BILBO pixhawk mount.step',
/* time_stamp */ '2026-04-05T23:44:53+05:30',
/* author */ (''),
/* organization */ (''),
/* preprocessor_version */ 'ST-DEVELOPER v20.1',
/* originating_system */ 'Autodesk Translation Framework v14.24.0.0',
/* authorisation */ '');

FILE_SCHEMA (('AUTOMOTIVE_DESIGN { 1 0 10303 214 3 1 1 }'));
ENDSEC;

DATA;
#10=MECHANICAL_DESIGN_GEOMETRIC_PRESENTATION_REPRESENTATION('',(#14,#15),
#1095);
#11=SHAPE_REPRESENTATION_RELATIONSHIP('SRR','None',#1102,#12);
#12=ADVANCED_BREP_SHAPE_REPRESENTATION('',(#13),#1094);
#13=MANIFOLD_SOLID_BREP('Body64',#641);
#14=STYLED_ITEM('',(#1112),#609);
#15=STYLED_ITEM('',(#1112),#13);
#16=ELLIPSE('',#661,0.141421356237309,0.1);
#17=ELLIPSE('',#662,0.141421356237309,0.1);
#18=ELLIPSE('',#664,0.141421356237309,0.1);
#19=ELLIPSE('',#666,0.14142135623731,0.1);
#20=ELLIPSE('',#674,0.113137084989848,0.08);
#21=ELLIPSE('',#675,0.099858226062445,0.08);
#22=ELLIPSE('',#677,0.184677011125539,0.08);
#23=ELLIPSE('',#679,0.113137084989848,0.08);
#24=ELLIPSE('',#680,0.0998582260624449,0.08);
#25=ELLIPSE('',#682,0.113137084989848,0.08);
#26=ELLIPSE('',#684,0.113137084989848,0.08);
#27=ELLIPSE('',#686,0.184677011125539,0.08);
#28=ELLIPSE('',#689,0.139954800169748,0.08);
#29=ELLIPSE('',#697,0.184677011125539,0.08);
#30=ELLIPSE('',#698,0.113137084989848,0.08);
#31=ELLIPSE('',#700,0.0998582260624449,0.08);
#32=ELLIPSE('',#701,0.113137084989848,0.08);
#33=ELLIPSE('',#703,0.139954800169748,0.08);
#34=ELLIPSE('',#705,0.099858226062445,0.08);
#35=ELLIPSE('',#707,0.113137084989848,0.08);
#36=ELLIPSE('',#709,0.184677011125539,0.08);
#37=ELLIPSE('',#711,0.113137084989848,0.08);
#38=CYLINDRICAL_SURFACE('',#660,0.1);
#39=CYLINDRICAL_SURFACE('',#663,0.1);
#40=CYLINDRICAL_SURFACE('',#665,0.1);
#41=CYLINDRICAL_SURFACE('',#667,0.1);
#42=CYLINDRICAL_SURFACE('',#673,0.08);
#43=CYLINDRICAL_SURFACE('',#676,0.08);
#44=CYLINDRICAL_SURFACE('',#678,0.08);
#45=CYLINDRICAL_SURFACE('',#681,0.08);
#46=CYLINDRICAL_SURFACE('',#683,0.08);
#47=CYLINDRICAL_SURFACE('',#685,0.08);
#48=CYLINDRICAL_SURFACE('',#687,0.08);
#49=CYLINDRICAL_SURFACE('',#688,0.08);
#50=CYLINDRICAL_SURFACE('',#690,0.08);
#51=CYLINDRICAL_SURFACE('',#696,0.08);
#52=CYLINDRICAL_SURFACE('',#699,0.08);
#53=CYLINDRICAL_SURFACE('',#702,0.08);
#54=CYLINDRICAL_SURFACE('',#704,0.08);
#55=CYLINDRICAL_SURFACE('',#706,0.08);
#56=CYLINDRICAL_SURFACE('',#708,0.08);
#57=CYLINDRICAL_SURFACE('',#710,0.08);
#58=CYLINDRICAL_SURFACE('',#712,0.08);
#59=CYLINDRICAL_SURFACE('',#713,0.08);
#60=CYLINDRICAL_SURFACE('',#718,0.16);
#61=CYLINDRICAL_SURFACE('',#719,0.16);
#62=CYLINDRICAL_SURFACE('',#720,0.16);
#63=CYLINDRICAL_SURFACE('',#721,0.16);
#64=CIRCLE('',#656,0.16);
#65=CIRCLE('',#657,0.16);
#66=CIRCLE('',#658,0.16);
#67=CIRCLE('',#659,0.16);
#68=CIRCLE('',#669,0.16);
#69=CIRCLE('',#670,0.16);
#70=CIRCLE('',#671,0.16);
#71=CIRCLE('',#672,0.16);
#72=FACE_BOUND('',#120,.T.);
#73=FACE_BOUND('',#121,.T.);
#74=FACE_BOUND('',#122,.T.);
#75=FACE_BOUND('',#123,.T.);
#76=FACE_BOUND('',#124,.T.);
#77=FACE_BOUND('',#130,.T.);
#78=FACE_BOUND('',#131,.T.);
#79=FACE_BOUND('',#132,.T.);
#80=FACE_BOUND('',#133,.T.);
#81=FACE_BOUND('',#134,.T.);
#82=FACE_OUTER_BOUND('',#119,.T.);
#83=FACE_OUTER_BOUND('',#125,.T.);
#84=FACE_OUTER_BOUND('',#126,.T.);
#85=FACE_OUTER_BOUND('',#127,.T.);
#86=FACE_OUTER_BOUND('',#128,.T.);
#87=FACE_OUTER_BOUND('',#129,.T.);
#88=FACE_OUTER_BOUND('',#135,.T.);
#89=FACE_OUTER_BOUND('',#136,.T.);
#90=FACE_OUTER_BOUND('',#137,.T.);
#91=FACE_OUTER_BOUND('',#138,.T.);
#92=FACE_OUTER_BOUND('',#139,.T.);
#93=FACE_OUTER_BOUND('',#140,.T.);
#94=FACE_OUTER_BOUND('',#141,.T.);
#95=FACE_OUTER_BOUND('',#142,.T.);
#96=FACE_OUTER_BOUND('',#143,.T.);
#97=FACE_OUTER_BOUND('',#144,.T.);
#98=FACE_OUTER_BOUND('',#145,.T.);
#99=FACE_OUTER_BOUND('',#146,.T.);
#100=FACE_OUTER_BOUND('',#147,.T.);
#101=FACE_OUTER_BOUND('',#148,.T.);
#102=FACE_OUTER_BOUND('',#149,.T.);
#103=FACE_OUTER_BOUND('',#150,.T.);
#104=FACE_OUTER_BOUND('',#151,.T.);
#105=FACE_OUTER_BOUND('',#152,.T.);
#106=FACE_OUTER_BOUND('',#153,.T.);
#107=FACE_OUTER_BOUND('',#154,.T.);
#108=FACE_OUTER_BOUND('',#155,.T.);
#109=FACE_OUTER_BOUND('',#156,.T.);
#110=FACE_OUTER_BOUND('',#157,.T.);
#111=FACE_OUTER_BOUND('',#158,.T.);
#112=FACE_OUTER_BOUND('',#159,.T.);
#113=FACE_OUTER_BOUND('',#160,.T.);
#114=FACE_OUTER_BOUND('',#161,.T.);
#115=FACE_OUTER_BOUND('',#162,.T.);
#116=FACE_OUTER_BOUND('',#163,.T.);
#117=FACE_OUTER_BOUND('',#164,.T.);
#118=FACE_OUTER_BOUND('',#165,.T.);
#119=EDGE_LOOP('',(#419,#420,#421,#422));
#120=EDGE_LOOP('',(#423,#424,#425,#426,#427,#428,#429,#430,#431));
#121=EDGE_LOOP('',(#432));
#122=EDGE_LOOP('',(#433));
#123=EDGE_LOOP('',(#434));
#124=EDGE_LOOP('',(#435));
#125=EDGE_LOOP('',(#436,#437,#438,#439));
#126=EDGE_LOOP('',(#440,#441,#442,#443));
#127=EDGE_LOOP('',(#444,#445,#446,#447));
#128=EDGE_LOOP('',(#448,#449,#450,#451));
#129=EDGE_LOOP('',(#452,#453,#454,#455));
#130=EDGE_LOOP('',(#456,#457,#458,#459,#460,#461,#462,#463,#464));
#131=EDGE_LOOP('',(#465));
#132=EDGE_LOOP('',(#466));
#133=EDGE_LOOP('',(#467));
#134=EDGE_LOOP('',(#468));
#135=EDGE_LOOP('',(#469,#470,#471,#472));
#136=EDGE_LOOP('',(#473,#474,#475,#476));
#137=EDGE_LOOP('',(#477,#478,#479,#480));
#138=EDGE_LOOP('',(#481,#482,#483,#484));
#139=EDGE_LOOP('',(#485,#486,#487,#488));
#140=EDGE_LOOP('',(#489,#490,#491,#492));
#141=EDGE_LOOP('',(#493,#494,#495,#496));
#142=EDGE_LOOP('',(#497,#498,#499,#500));
#143=EDGE_LOOP('',(#501,#502,#503,#504));
#144=EDGE_LOOP('',(#505,#506,#507,#508));
#145=EDGE_LOOP('',(#509,#510,#511,#512));
#146=EDGE_LOOP('',(#513,#514,#515,#516));
#147=EDGE_LOOP('',(#517,#518,#519,#520));
#148=EDGE_LOOP('',(#521,#522,#523,#524));
#149=EDGE_LOOP('',(#525,#526,#527,#528));
#150=EDGE_LOOP('',(#529,#530,#531,#532));
#151=EDGE_LOOP('',(#533,#534,#535,#536));
#152=EDGE_LOOP('',(#537,#538,#539,#540));
#153=EDGE_LOOP('',(#541,#542,#543,#544));
#154=EDGE_LOOP('',(#545,#546,#547,#548));
#155=EDGE_LOOP('',(#549,#550,#551,#552));
#156=EDGE_LOOP('',(#553,#554,#555,#556));
#157=EDGE_LOOP('',(#557,#558,#559,#560));
#158=EDGE_LOOP('',(#561,#562,#563,#564));
#159=EDGE_LOOP('',(#565,#566,#567,#568));
#160=EDGE_LOOP('',(#569,#570,#571,#572));
#161=EDGE_LOOP('',(#573,#574,#575,#576));
#162=EDGE_LOOP('',(#577,#578,#579,#580));
#163=EDGE_LOOP('',(#581,#582,#583,#584));
#164=EDGE_LOOP('',(#585,#586,#587,#588));
#165=EDGE_LOOP('',(#589,#590,#591,#592));
#166=LINE('',#919,#223);
#167=LINE('',#921,#224);
#168=LINE('',#923,#225);
#169=LINE('',#924,#226);
#170=LINE('',#927,#227);
#171=LINE('',#929,#228);
#172=LINE('',#931,#229);
#173=LINE('',#933,#230);
#174=LINE('',#935,#231);
#175=LINE('',#937,#232);
#176=LINE('',#939,#233);
#177=LINE('',#941,#234);
#178=LINE('',#942,#235);
#179=LINE('',#954,#236);
#180=LINE('',#959,#237);
#181=LINE('',#963,#238);
#182=LINE('',#966,#239);
#183=LINE('',#970,#240);
#184=LINE('',#972,#241);
#185=LINE('',#974,#242);
#186=LINE('',#976,#243);
#187=LINE('',#978,#244);
#188=LINE('',#980,#245);
#189=LINE('',#982,#246);
#190=LINE('',#984,#247);
#191=LINE('',#985,#248);
#192=LINE('',#997,#249);
#193=LINE('',#1002,#250);
#194=LINE('',#1008,#251);
#195=LINE('',#1012,#252);
#196=LINE('',#1016,#253);
#197=LINE('',#1020,#254);
#198=LINE('',#1023,#255);
#199=LINE('',#1026,#256);
#200=LINE('',#1029,#257);
#201=LINE('',#1032,#258);
#202=LINE('',#1034,#259);
#203=LINE('',#1035,#260);
#204=LINE('',#1038,#261);
#205=LINE('',#1039,#262);
#206=LINE('',#1042,#263);
#207=LINE('',#1043,#264);
#208=LINE('',#1046,#265);
#209=LINE('',#1047,#266);
#210=LINE('',#1050,#267);
#211=LINE('',#1051,#268);
#212=LINE('',#1056,#269);
#213=LINE('',#1071,#270);
#214=LINE('',#1074,#271);
#215=LINE('',#1076,#272);
#216=LINE('',#1078,#273);
#217=LINE('',#1080,#274);
#218=LINE('',#1082,#275);
#219=LINE('',#1085,#276);
#220=LINE('',#1087,#277);
#221=LINE('',#1089,#278);
#222=LINE('',#1091,#279);
#223=VECTOR('',#726,1.);
#224=VECTOR('',#727,1.);
#225=VECTOR('',#728,1.);
#226=VECTOR('',#729,1.);
#227=VECTOR('',#730,1.);
#228=VECTOR('',#731,1.);
#229=VECTOR('',#732,1.);
#230=VECTOR('',#733,1.);
#231=VECTOR('',#734,1.);
#232=VECTOR('',#735,1.);
#233=VECTOR('',#736,1.);
#234=VECTOR('',#737,1.);
#235=VECTOR('',#738,1.);
#236=VECTOR('',#749,1.);
#237=VECTOR('',#756,1.);
#238=VECTOR('',#761,1.);
#239=VECTOR('',#766,1.);
#240=VECTOR('',#769,1.);
#241=VECTOR('',#770,1.);
#242=VECTOR('',#771,1.);
#243=VECTOR('',#772,1.);
#244=VECTOR('',#773,1.);
#245=VECTOR('',#774,1.);
#246=VECTOR('',#775,1.);
#247=VECTOR('',#776,1.);
#248=VECTOR('',#777,1.);
#249=VECTOR('',#788,1.);
#250=VECTOR('',#795,1.);
#251=VECTOR('',#802,1.);
#252=VECTOR('',#807,1.);
#253=VECTOR('',#812,1.);
#254=VECTOR('',#817,1.);
#255=VECTOR('',#822,1.);
#256=VECTOR('',#825,1.);
#257=VECTOR('',#830,1.);
#258=VECTOR('',#833,1.);
#259=VECTOR('',#834,1.);
#260=VECTOR('',#835,1.);
#261=VECTOR('',#838,1.);
#262=VECTOR('',#839,1.);
#263=VECTOR('',#842,1.);
#264=VECTOR('',#843,1.);
#265=VECTOR('',#846,1.);
#266=VECTOR('',#847,1.);
#267=VECTOR('',#850,1.);
#268=VECTOR('',#851,1.);
#269=VECTOR('',#856,1.);
#270=VECTOR('',#883,1.);
#271=VECTOR('',#888,1.);
#272=VECTOR('',#891,1.);
#273=VECTOR('',#894,1.);
#274=VECTOR('',#897,1.);
#275=VECTOR('',#900,1.);
#276=VECTOR('',#905,0.16);
#277=VECTOR('',#908,0.16);
#278=VECTOR('',#911,0.16);
#279=VECTOR('',#914,0.16);
#280=VERTEX_POINT('',#917);
#281=VERTEX_POINT('',#918);
#282=VERTEX_POINT('',#920);
#283=VERTEX_POINT('',#922);
#284=VERTEX_POINT('',#925);
#285=VERTEX_POINT('',#926);
#286=VERTEX_POINT('',#928);
#287=VERTEX_POINT('',#930);
#288=VERTEX_POINT('',#932);
#289=VERTEX_POINT('',#934);
#290=VERTEX_POINT('',#936);
#291=VERTEX_POINT('',#938);
#292=VERTEX_POINT('',#940);
#293=VERTEX_POINT('',#943);
#294=VERTEX_POINT('',#945);
#295=VERTEX_POINT('',#947);
#296=VERTEX_POINT('',#949);
#297=VERTEX_POINT('',#952);
#298=VERTEX_POINT('',#953);
#299=VERTEX_POINT('',#958);
#300=VERTEX_POINT('',#962);
#301=VERTEX_POINT('',#968);
#302=VERTEX_POINT('',#969);
#303=VERTEX_POINT('',#971);
#304=VERTEX_POINT('',#973);
#305=VERTEX_POINT('',#975);
#306=VERTEX_POINT('',#977);
#307=VERTEX_POINT('',#979);
#308=VERTEX_POINT('',#981);
#309=VERTEX_POINT('',#983);
#310=VERTEX_POINT('',#986);
#311=VERTEX_POINT('',#988);
#312=VERTEX_POINT('',#990);
#313=VERTEX_POINT('',#992);
#314=VERTEX_POINT('',#995);
#315=VERTEX_POINT('',#996);
#316=VERTEX_POINT('',#1001);
#317=VERTEX_POINT('',#1005);
#318=VERTEX_POINT('',#1007);
#319=VERTEX_POINT('',#1011);
#320=VERTEX_POINT('',#1015);
#321=VERTEX_POINT('',#1019);
#322=VERTEX_POINT('',#1025);
#323=VERTEX_POINT('',#1031);
#324=VERTEX_POINT('',#1033);
#325=VERTEX_POINT('',#1037);
#326=VERTEX_POINT('',#1041);
#327=VERTEX_POINT('',#1045);
#328=VERTEX_POINT('',#1049);
#329=VERTEX_POINT('',#1053);
#330=VERTEX_POINT('',#1055);
#331=VERTEX_POINT('',#1070);
#332=EDGE_CURVE('',#280,#281,#166,.T.);
#333=EDGE_CURVE('',#282,#280,#167,.T.);
#334=EDGE_CURVE('',#283,#282,#168,.T.);
#335=EDGE_CURVE('',#281,#283,#169,.T.);
#336=EDGE_CURVE('',#284,#285,#170,.T.);
#337=EDGE_CURVE('',#286,#284,#171,.T.);
#338=EDGE_CURVE('',#287,#286,#172,.T.);
#339=EDGE_CURVE('',#288,#287,#173,.T.);
#340=EDGE_CURVE('',#289,#288,#174,.T.);
#341=EDGE_CURVE('',#290,#289,#175,.T.);
#342=EDGE_CURVE('',#291,#290,#176,.T.);
#343=EDGE_CURVE('',#292,#291,#177,.T.);
#344=EDGE_CURVE('',#285,#292,#178,.T.);
#345=EDGE_CURVE('',#293,#293,#64,.T.);
#346=EDGE_CURVE('',#294,#294,#65,.T.);
#347=EDGE_CURVE('',#295,#295,#66,.T.);
#348=EDGE_CURVE('',#296,#296,#67,.T.);
#349=EDGE_CURVE('',#297,#298,#179,.T.);
#350=EDGE_CURVE('',#280,#298,#16,.T.);
#351=EDGE_CURVE('',#297,#281,#17,.T.);
#352=EDGE_CURVE('',#298,#299,#180,.T.);
#353=EDGE_CURVE('',#299,#282,#18,.T.);
#354=EDGE_CURVE('',#299,#300,#181,.T.);
#355=EDGE_CURVE('',#300,#283,#19,.T.);
#356=EDGE_CURVE('',#300,#297,#182,.T.);
#357=EDGE_CURVE('',#301,#302,#183,.T.);
#358=EDGE_CURVE('',#303,#301,#184,.T.);
#359=EDGE_CURVE('',#304,#303,#185,.T.);
#360=EDGE_CURVE('',#305,#304,#186,.T.);
#361=EDGE_CURVE('',#306,#305,#187,.T.);
#362=EDGE_CURVE('',#307,#306,#188,.T.);
#363=EDGE_CURVE('',#308,#307,#189,.T.);
#364=EDGE_CURVE('',#309,#308,#190,.T.);
#365=EDGE_CURVE('',#302,#309,#191,.T.);
#366=EDGE_CURVE('',#310,#310,#68,.T.);
#367=EDGE_CURVE('',#311,#311,#69,.T.);
#368=EDGE_CURVE('',#312,#312,#70,.T.);
#369=EDGE_CURVE('',#313,#313,#71,.T.);
#370=EDGE_CURVE('',#314,#315,#192,.T.);
#371=EDGE_CURVE('',#315,#288,#20,.T.);
#372=EDGE_CURVE('',#314,#287,#21,.T.);
#373=EDGE_CURVE('',#315,#316,#193,.T.);
#374=EDGE_CURVE('',#316,#289,#22,.T.);
#375=EDGE_CURVE('',#285,#317,#23,.T.);
#376=EDGE_CURVE('',#317,#318,#194,.T.);
#377=EDGE_CURVE('',#318,#284,#24,.T.);
#378=EDGE_CURVE('',#316,#319,#195,.T.);
#379=EDGE_CURVE('',#319,#290,#25,.T.);
#380=EDGE_CURVE('',#319,#320,#196,.T.);
#381=EDGE_CURVE('',#320,#291,#26,.T.);
#382=EDGE_CURVE('',#320,#321,#197,.T.);
#383=EDGE_CURVE('',#321,#292,#27,.T.);
#384=EDGE_CURVE('',#321,#317,#198,.T.);
#385=EDGE_CURVE('',#318,#322,#199,.T.);
#386=EDGE_CURVE('',#322,#286,#28,.T.);
#387=EDGE_CURVE('',#322,#314,#200,.T.);
#388=EDGE_CURVE('',#323,#315,#201,.T.);
#389=EDGE_CURVE('',#324,#323,#202,.T.);
#390=EDGE_CURVE('',#324,#316,#203,.T.);
#391=EDGE_CURVE('',#325,#314,#204,.T.);
#392=EDGE_CURVE('',#323,#325,#205,.T.);
#393=EDGE_CURVE('',#326,#322,#206,.T.);
#394=EDGE_CURVE('',#325,#326,#207,.T.);
#395=EDGE_CURVE('',#327,#318,#208,.T.);
#396=EDGE_CURVE('',#326,#327,#209,.T.);
#397=EDGE_CURVE('',#328,#317,#210,.T.);
#398=EDGE_CURVE('',#327,#328,#211,.T.);
#399=EDGE_CURVE('',#303,#329,#29,.T.);
#400=EDGE_CURVE('',#329,#330,#212,.T.);
#401=EDGE_CURVE('',#304,#330,#30,.T.);
#402=EDGE_CURVE('',#302,#327,#31,.T.);
#403=EDGE_CURVE('',#328,#301,#32,.T.);
#404=EDGE_CURVE('',#309,#326,#33,.T.);
#405=EDGE_CURVE('',#308,#325,#34,.T.);
#406=EDGE_CURVE('',#307,#323,#35,.T.);
#407=EDGE_CURVE('',#306,#324,#36,.T.);
#408=EDGE_CURVE('',#331,#324,#213,.T.);
#409=EDGE_CURVE('',#305,#331,#37,.T.);
#410=EDGE_CURVE('',#328,#329,#214,.T.);
#411=EDGE_CURVE('',#330,#331,#215,.T.);
#412=EDGE_CURVE('',#331,#319,#216,.T.);
#413=EDGE_CURVE('',#330,#320,#217,.T.);
#414=EDGE_CURVE('',#329,#321,#218,.T.);
#415=EDGE_CURVE('',#293,#310,#219,.T.);
#416=EDGE_CURVE('',#294,#311,#220,.T.);
#417=EDGE_CURVE('',#295,#312,#221,.T.);
#418=EDGE_CURVE('',#296,#313,#222,.T.);
#419=ORIENTED_EDGE('',*,*,#332,.F.);
#420=ORIENTED_EDGE('',*,*,#333,.F.);
#421=ORIENTED_EDGE('',*,*,#334,.F.);
#422=ORIENTED_EDGE('',*,*,#335,.F.);
#423=ORIENTED_EDGE('',*,*,#336,.F.);
#424=ORIENTED_EDGE('',*,*,#337,.F.);
#425=ORIENTED_EDGE('',*,*,#338,.F.);
#426=ORIENTED_EDGE('',*,*,#339,.F.);
#427=ORIENTED_EDGE('',*,*,#340,.F.);
#428=ORIENTED_EDGE('',*,*,#341,.F.);
#429=ORIENTED_EDGE('',*,*,#342,.F.);
#430=ORIENTED_EDGE('',*,*,#343,.F.);
#431=ORIENTED_EDGE('',*,*,#344,.F.);
#432=ORIENTED_EDGE('',*,*,#345,.T.);
#433=ORIENTED_EDGE('',*,*,#346,.T.);
#434=ORIENTED_EDGE('',*,*,#347,.T.);
#435=ORIENTED_EDGE('',*,*,#348,.T.);
#436=ORIENTED_EDGE('',*,*,#349,.T.);
#437=ORIENTED_EDGE('',*,*,#350,.F.);
#438=ORIENTED_EDGE('',*,*,#332,.T.);
#439=ORIENTED_EDGE('',*,*,#351,.F.);
#440=ORIENTED_EDGE('',*,*,#352,.T.);
#441=ORIENTED_EDGE('',*,*,#353,.T.);
#442=ORIENTED_EDGE('',*,*,#333,.T.);
#443=ORIENTED_EDGE('',*,*,#350,.T.);
#444=ORIENTED_EDGE('',*,*,#354,.T.);
#445=ORIENTED_EDGE('',*,*,#355,.T.);
#446=ORIENTED_EDGE('',*,*,#334,.T.);
#447=ORIENTED_EDGE('',*,*,#353,.F.);
#448=ORIENTED_EDGE('',*,*,#355,.F.);
#449=ORIENTED_EDGE('',*,*,#356,.T.);
#450=ORIENTED_EDGE('',*,*,#351,.T.);
#451=ORIENTED_EDGE('',*,*,#335,.T.);
#452=ORIENTED_EDGE('',*,*,#349,.F.);
#453=ORIENTED_EDGE('',*,*,#356,.F.);
#454=ORIENTED_EDGE('',*,*,#354,.F.);
#455=ORIENTED_EDGE('',*,*,#352,.F.);
#456=ORIENTED_EDGE('',*,*,#357,.F.);
#457=ORIENTED_EDGE('',*,*,#358,.F.);
#458=ORIENTED_EDGE('',*,*,#359,.F.);
#459=ORIENTED_EDGE('',*,*,#360,.F.);
#460=ORIENTED_EDGE('',*,*,#361,.F.);
#461=ORIENTED_EDGE('',*,*,#362,.F.);
#462=ORIENTED_EDGE('',*,*,#363,.F.);
#463=ORIENTED_EDGE('',*,*,#364,.F.);
#464=ORIENTED_EDGE('',*,*,#365,.F.);
#465=ORIENTED_EDGE('',*,*,#366,.T.);
#466=ORIENTED_EDGE('',*,*,#367,.T.);
#467=ORIENTED_EDGE('',*,*,#368,.T.);
#468=ORIENTED_EDGE('',*,*,#369,.T.);
#469=ORIENTED_EDGE('',*,*,#370,.T.);
#470=ORIENTED_EDGE('',*,*,#371,.T.);
#471=ORIENTED_EDGE('',*,*,#339,.T.);
#472=ORIENTED_EDGE('',*,*,#372,.F.);
#473=ORIENTED_EDGE('',*,*,#373,.T.);
#474=ORIENTED_EDGE('',*,*,#374,.T.);
#475=ORIENTED_EDGE('',*,*,#340,.T.);
#476=ORIENTED_EDGE('',*,*,#371,.F.);
#477=ORIENTED_EDGE('',*,*,#336,.T.);
#478=ORIENTED_EDGE('',*,*,#375,.T.);
#479=ORIENTED_EDGE('',*,*,#376,.T.);
#480=ORIENTED_EDGE('',*,*,#377,.T.);
#481=ORIENTED_EDGE('',*,*,#378,.T.);
#482=ORIENTED_EDGE('',*,*,#379,.T.);
#483=ORIENTED_EDGE('',*,*,#341,.T.);
#484=ORIENTED_EDGE('',*,*,#374,.F.);
#485=ORIENTED_EDGE('',*,*,#380,.T.);
#486=ORIENTED_EDGE('',*,*,#381,.T.);
#487=ORIENTED_EDGE('',*,*,#342,.T.);
#488=ORIENTED_EDGE('',*,*,#379,.F.);
#489=ORIENTED_EDGE('',*,*,#343,.T.);
#490=ORIENTED_EDGE('',*,*,#381,.F.);
#491=ORIENTED_EDGE('',*,*,#382,.T.);
#492=ORIENTED_EDGE('',*,*,#383,.T.);
#493=ORIENTED_EDGE('',*,*,#344,.T.);
#494=ORIENTED_EDGE('',*,*,#383,.F.);
#495=ORIENTED_EDGE('',*,*,#384,.T.);
#496=ORIENTED_EDGE('',*,*,#375,.F.);
#497=ORIENTED_EDGE('',*,*,#337,.T.);
#498=ORIENTED_EDGE('',*,*,#377,.F.);
#499=ORIENTED_EDGE('',*,*,#385,.T.);
#500=ORIENTED_EDGE('',*,*,#386,.T.);
#501=ORIENTED_EDGE('',*,*,#338,.T.);
#502=ORIENTED_EDGE('',*,*,#386,.F.);
#503=ORIENTED_EDGE('',*,*,#387,.T.);
#504=ORIENTED_EDGE('',*,*,#372,.T.);
#505=ORIENTED_EDGE('',*,*,#373,.F.);
#506=ORIENTED_EDGE('',*,*,#388,.F.);
#507=ORIENTED_EDGE('',*,*,#389,.F.);
#508=ORIENTED_EDGE('',*,*,#390,.T.);
#509=ORIENTED_EDGE('',*,*,#370,.F.);
#510=ORIENTED_EDGE('',*,*,#391,.F.);
#511=ORIENTED_EDGE('',*,*,#392,.F.);
#512=ORIENTED_EDGE('',*,*,#388,.T.);
#513=ORIENTED_EDGE('',*,*,#387,.F.);
#514=ORIENTED_EDGE('',*,*,#393,.F.);
#515=ORIENTED_EDGE('',*,*,#394,.F.);
#516=ORIENTED_EDGE('',*,*,#391,.T.);
#517=ORIENTED_EDGE('',*,*,#385,.F.);
#518=ORIENTED_EDGE('',*,*,#395,.F.);
#519=ORIENTED_EDGE('',*,*,#396,.F.);
#520=ORIENTED_EDGE('',*,*,#393,.T.);
#521=ORIENTED_EDGE('',*,*,#376,.F.);
#522=ORIENTED_EDGE('',*,*,#397,.F.);
#523=ORIENTED_EDGE('',*,*,#398,.F.);
#524=ORIENTED_EDGE('',*,*,#395,.T.);
#525=ORIENTED_EDGE('',*,*,#359,.T.);
#526=ORIENTED_EDGE('',*,*,#399,.T.);
#527=ORIENTED_EDGE('',*,*,#400,.T.);
#528=ORIENTED_EDGE('',*,*,#401,.F.);
#529=ORIENTED_EDGE('',*,*,#357,.T.);
#530=ORIENTED_EDGE('',*,*,#402,.T.);
#531=ORIENTED_EDGE('',*,*,#398,.T.);
#532=ORIENTED_EDGE('',*,*,#403,.T.);
#533=ORIENTED_EDGE('',*,*,#365,.T.);
#534=ORIENTED_EDGE('',*,*,#404,.T.);
#535=ORIENTED_EDGE('',*,*,#396,.T.);
#536=ORIENTED_EDGE('',*,*,#402,.F.);
#537=ORIENTED_EDGE('',*,*,#364,.T.);
#538=ORIENTED_EDGE('',*,*,#405,.T.);
#539=ORIENTED_EDGE('',*,*,#394,.T.);
#540=ORIENTED_EDGE('',*,*,#404,.F.);
#541=ORIENTED_EDGE('',*,*,#392,.T.);
#542=ORIENTED_EDGE('',*,*,#405,.F.);
#543=ORIENTED_EDGE('',*,*,#363,.T.);
#544=ORIENTED_EDGE('',*,*,#406,.T.);
#545=ORIENTED_EDGE('',*,*,#389,.T.);
#546=ORIENTED_EDGE('',*,*,#406,.F.);
#547=ORIENTED_EDGE('',*,*,#362,.T.);
#548=ORIENTED_EDGE('',*,*,#407,.T.);
#549=ORIENTED_EDGE('',*,*,#408,.T.);
#550=ORIENTED_EDGE('',*,*,#407,.F.);
#551=ORIENTED_EDGE('',*,*,#361,.T.);
#552=ORIENTED_EDGE('',*,*,#409,.T.);
#553=ORIENTED_EDGE('',*,*,#358,.T.);
#554=ORIENTED_EDGE('',*,*,#403,.F.);
#555=ORIENTED_EDGE('',*,*,#410,.T.);
#556=ORIENTED_EDGE('',*,*,#399,.F.);
#557=ORIENTED_EDGE('',*,*,#411,.T.);
#558=ORIENTED_EDGE('',*,*,#409,.F.);
#559=ORIENTED_EDGE('',*,*,#360,.T.);
#560=ORIENTED_EDGE('',*,*,#401,.T.);
#561=ORIENTED_EDGE('',*,*,#378,.F.);
#562=ORIENTED_EDGE('',*,*,#390,.F.);
#563=ORIENTED_EDGE('',*,*,#408,.F.);
#564=ORIENTED_EDGE('',*,*,#412,.T.);
#565=ORIENTED_EDGE('',*,*,#380,.F.);
#566=ORIENTED_EDGE('',*,*,#412,.F.);
#567=ORIENTED_EDGE('',*,*,#411,.F.);
#568=ORIENTED_EDGE('',*,*,#413,.T.);
#569=ORIENTED_EDGE('',*,*,#382,.F.);
#570=ORIENTED_EDGE('',*,*,#413,.F.);
#571=ORIENTED_EDGE('',*,*,#400,.F.);
#572=ORIENTED_EDGE('',*,*,#414,.T.);
#573=ORIENTED_EDGE('',*,*,#384,.F.);
#574=ORIENTED_EDGE('',*,*,#414,.F.);
#575=ORIENTED_EDGE('',*,*,#410,.F.);
#576=ORIENTED_EDGE('',*,*,#397,.T.);
#577=ORIENTED_EDGE('',*,*,#345,.F.);
#578=ORIENTED_EDGE('',*,*,#415,.T.);
#579=ORIENTED_EDGE('',*,*,#366,.F.);
#580=ORIENTED_EDGE('',*,*,#415,.F.);
#581=ORIENTED_EDGE('',*,*,#346,.F.);
#582=ORIENTED_EDGE('',*,*,#416,.T.);
#583=ORIENTED_EDGE('',*,*,#367,.F.);
#584=ORIENTED_EDGE('',*,*,#416,.F.);
#585=ORIENTED_EDGE('',*,*,#347,.F.);
#586=ORIENTED_EDGE('',*,*,#417,.T.);
#587=ORIENTED_EDGE('',*,*,#368,.F.);
#588=ORIENTED_EDGE('',*,*,#417,.F.);
#589=ORIENTED_EDGE('',*,*,#348,.F.);
#590=ORIENTED_EDGE('',*,*,#418,.T.);
#591=ORIENTED_EDGE('',*,*,#369,.F.);
#592=ORIENTED_EDGE('',*,*,#418,.F.);
#593=PLANE('',#655);
#594=PLANE('',#668);
#595=PLANE('',#691);
#596=PLANE('',#692);
#597=PLANE('',#693);
#598=PLANE('',#694);
#599=PLANE('',#695);
#600=PLANE('',#714);
#601=PLANE('',#715);
#602=PLANE('',#716);
#603=PLANE('',#717);
#604=ADVANCED_FACE('',(#82,#72,#73,#74,#75,#76),#593,.F.);
#605=ADVANCED_FACE('',(#83),#38,.T.);
#606=ADVANCED_FACE('',(#84),#39,.T.);
#607=ADVANCED_FACE('',(#85),#40,.T.);
#608=ADVANCED_FACE('',(#86),#41,.T.);
#609=ADVANCED_FACE('',(#87,#77,#78,#79,#80,#81),#594,.T.);
#610=ADVANCED_FACE('',(#88),#42,.T.);
#611=ADVANCED_FACE('',(#89),#43,.T.);
#612=ADVANCED_FACE('',(#90),#44,.T.);
#613=ADVANCED_FACE('',(#91),#45,.T.);
#614=ADVANCED_FACE('',(#92),#46,.T.);
#615=ADVANCED_FACE('',(#93),#47,.T.);
#616=ADVANCED_FACE('',(#94),#48,.T.);
#617=ADVANCED_FACE('',(#95),#49,.T.);
#618=ADVANCED_FACE('',(#96),#50,.T.);
#619=ADVANCED_FACE('',(#97),#595,.F.);
#620=ADVANCED_FACE('',(#98),#596,.F.);
#621=ADVANCED_FACE('',(#99),#597,.F.);
#622=ADVANCED_FACE('',(#100),#598,.F.);
#623=ADVANCED_FACE('',(#101),#599,.F.);
#624=ADVANCED_FACE('',(#102),#51,.T.);
#625=ADVANCED_FACE('',(#103),#52,.T.);
#626=ADVANCED_FACE('',(#104),#53,.T.);
#627=ADVANCED_FACE('',(#105),#54,.T.);
#628=ADVANCED_FACE('',(#106),#55,.T.);
#629=ADVANCED_FACE('',(#107),#56,.T.);
#630=ADVANCED_FACE('',(#108),#57,.T.);
#631=ADVANCED_FACE('',(#109),#58,.T.);
#632=ADVANCED_FACE('',(#110),#59,.T.);
#633=ADVANCED_FACE('',(#111),#600,.F.);
#634=ADVANCED_FACE('',(#112),#601,.F.);
#635=ADVANCED_FACE('',(#113),#602,.F.);
#636=ADVANCED_FACE('',(#114),#603,.F.);
#637=ADVANCED_FACE('',(#115),#60,.F.);
#638=ADVANCED_FACE('',(#116),#61,.F.);
#639=ADVANCED_FACE('',(#117),#62,.F.);
#640=ADVANCED_FACE('',(#118),#63,.F.);
#641=CLOSED_SHELL('',(#604,#605,#606,#607,#608,#609,#610,#611,#612,#613,
#614,#615,#616,#617,#618,#619,#620,#621,#622,#623,#624,#625,#626,#627,#628,
#629,#630,#631,#632,#633,#634,#635,#636,#637,#638,#639,#640));
#642=DERIVED_UNIT_ELEMENT(#644,1.);
#643=DERIVED_UNIT_ELEMENT(#1097,-3.);
#644=(
MASS_UNIT()
NAMED_UNIT(*)
SI_UNIT(.KILO.,.GRAM.)
);
#645=DERIVED_UNIT((#642,#643));
#646=MEASURE_REPRESENTATION_ITEM('density measure',
POSITIVE_RATIO_MEASURE(1060.),#645);
#647=PROPERTY_DEFINITION_REPRESENTATION(#652,#649);
#648=PROPERTY_DEFINITION_REPRESENTATION(#653,#650);
#649=REPRESENTATION('material name',(#651),#1094);
#650=REPRESENTATION('density',(#646),#1094);
#651=DESCRIPTIVE_REPRESENTATION_ITEM('ABS Plastic','ABS Plastic');
#652=PROPERTY_DEFINITION('material property','material name',#1104);
#653=PROPERTY_DEFINITION('material property','density of part',#1104);
#654=AXIS2_PLACEMENT_3D('',#915,#722,#723);
#655=AXIS2_PLACEMENT_3D('',#916,#724,#725);
#656=AXIS2_PLACEMENT_3D('',#944,#739,#740);
#657=AXIS2_PLACEMENT_3D('',#946,#741,#742);
#658=AXIS2_PLACEMENT_3D('',#948,#743,#744);
#659=AXIS2_PLACEMENT_3D('',#950,#745,#746);
#660=AXIS2_PLACEMENT_3D('',#951,#747,#748);
#661=AXIS2_PLACEMENT_3D('',#955,#750,#751);
#662=AXIS2_PLACEMENT_3D('',#956,#752,#753);
#663=AXIS2_PLACEMENT_3D('',#957,#754,#755);
#664=AXIS2_PLACEMENT_3D('',#960,#757,#758);
#665=AXIS2_PLACEMENT_3D('',#961,#759,#760);
#666=AXIS2_PLACEMENT_3D('',#964,#762,#763);
#667=AXIS2_PLACEMENT_3D('',#965,#764,#765);
#668=AXIS2_PLACEMENT_3D('',#967,#767,#768);
#669=AXIS2_PLACEMENT_3D('',#987,#778,#779);
#670=AXIS2_PLACEMENT_3D('',#989,#780,#781);
#671=AXIS2_PLACEMENT_3D('',#991,#782,#783);
#672=AXIS2_PLACEMENT_3D('',#993,#784,#785);
#673=AXIS2_PLACEMENT_3D('',#994,#786,#787);
#674=AXIS2_PLACEMENT_3D('',#998,#789,#790);
#675=AXIS2_PLACEMENT_3D('',#999,#791,#792);
#676=AXIS2_PLACEMENT_3D('',#1000,#793,#794);
#677=AXIS2_PLACEMENT_3D('',#1003,#796,#797);
#678=AXIS2_PLACEMENT_3D('',#1004,#798,#799);
#679=AXIS2_PLACEMENT_3D('',#1006,#800,#801);
#680=AXIS2_PLACEMENT_3D('',#1009,#803,#804);
#681=AXIS2_PLACEMENT_3D('',#1010,#805,#806);
#682=AXIS2_PLACEMENT_3D('',#1013,#808,#809);
#683=AXIS2_PLACEMENT_3D('',#1014,#810,#811);
#684=AXIS2_PLACEMENT_3D('',#1017,#813,#814);
#685=AXIS2_PLACEMENT_3D('',#1018,#815,#816);
#686=AXIS2_PLACEMENT_3D('',#1021,#818,#819);
#687=AXIS2_PLACEMENT_3D('',#1022,#820,#821);
#688=AXIS2_PLACEMENT_3D('',#1024,#823,#824);
#689=AXIS2_PLACEMENT_3D('',#1027,#826,#827);
#690=AXIS2_PLACEMENT_3D('',#1028,#828,#829);
#691=AXIS2_PLACEMENT_3D('',#1030,#831,#832);
#692=AXIS2_PLACEMENT_3D('',#1036,#836,#837);
#693=AXIS2_PLACEMENT_3D('',#1040,#840,#841);
#694=AXIS2_PLACEMENT_3D('',#1044,#844,#845);
#695=AXIS2_PLACEMENT_3D('',#1048,#848,#849);
#696=AXIS2_PLACEMENT_3D('',#1052,#852,#853);
#697=AXIS2_PLACEMENT_3D('',#1054,#854,#855);
#698=AXIS2_PLACEMENT_3D('',#1057,#857,#858);
#699=AXIS2_PLACEMENT_3D('',#1058,#859,#860);
#700=AXIS2_PLACEMENT_3D('',#1059,#861,#862);
#701=AXIS2_PLACEMENT_3D('',#1060,#863,#864);
#702=AXIS2_PLACEMENT_3D('',#1061,#865,#866);
#703=AXIS2_PLACEMENT_3D('',#1062,#867,#868);
#704=AXIS2_PLACEMENT_3D('',#1063,#869,#870);
#705=AXIS2_PLACEMENT_3D('',#1064,#871,#872);
#706=AXIS2_PLACEMENT_3D('',#1065,#873,#874);
#707=AXIS2_PLACEMENT_3D('',#1066,#875,#876);
#708=AXIS2_PLACEMENT_3D('',#1067,#877,#878);
#709=AXIS2_PLACEMENT_3D('',#1068,#879,#880);
#710=AXIS2_PLACEMENT_3D('',#1069,#881,#882);
#711=AXIS2_PLACEMENT_3D('',#1072,#884,#885);
#712=AXIS2_PLACEMENT_3D('',#1073,#886,#887);
#713=AXIS2_PLACEMENT_3D('',#1075,#889,#890);
#714=AXIS2_PLACEMENT_3D('',#1077,#892,#893);
#715=AXIS2_PLACEMENT_3D('',#1079,#895,#896);
#716=AXIS2_PLACEMENT_3D('',#1081,#898,#899);
#717=AXIS2_PLACEMENT_3D('',#1083,#901,#902);
#718=AXIS2_PLACEMENT_3D('',#1084,#903,#904);
#719=AXIS2_PLACEMENT_3D('',#1086,#906,#907);
#720=AXIS2_PLACEMENT_3D('',#1088,#909,#910);
#721=AXIS2_PLACEMENT_3D('',#1090,#912,#913);
#722=DIRECTION('axis',(0.,0.,1.));
#723=DIRECTION('refdir',(1.,0.,0.));
#724=DIRECTION('center_axis',(0.,0.,1.));
#725=DIRECTION('ref_axis',(1.,0.,0.));
#726=DIRECTION('',(0.,-1.,0.));
#727=DIRECTION('',(-1.,0.,0.));
#728=DIRECTION('',(0.,1.,0.));
#729=DIRECTION('',(1.,0.,0.));
#730=DIRECTION('',(-0.780868809443031,0.624695047554424,0.));
#731=DIRECTION('',(-0.820523272621332,-0.571613120114277,0.));
#732=DIRECTION('',(0.820523272621332,-0.571613120114277,0.));
#733=DIRECTION('',(0.78086880944303,0.624695047554424,0.));
#734=DIRECTION('',(-0.624695047554424,0.78086880944303,0.));
#735=DIRECTION('',(1.,0.,0.));
#736=DIRECTION('',(0.,1.,0.));
#737=DIRECTION('',(-1.,0.,0.));
#738=DIRECTION('',(0.624695047554424,0.78086880944303,0.));
#739=DIRECTION('center_axis',(0.,0.,1.));
#740=DIRECTION('ref_axis',(1.,0.,0.));
#741=DIRECTION('center_axis',(0.,0.,1.));
#742=DIRECTION('ref_axis',(1.,0.,0.));
#743=DIRECTION('center_axis',(0.,0.,1.));
#744=DIRECTION('ref_axis',(1.,0.,0.));
#745=DIRECTION('center_axis',(0.,0.,1.));
#746=DIRECTION('ref_axis',(1.,0.,0.));
#747=DIRECTION('center_axis',(0.,-1.,0.));
#748=DIRECTION('ref_axis',(-0.707106781186554,0.,0.707106781186541));
#749=DIRECTION('',(0.,1.,0.));
#750=DIRECTION('center_axis',(0.707106781186549,0.707106781186546,0.));
#751=DIRECTION('ref_axis',(-0.707106781186546,0.707106781186549,0.));
#752=DIRECTION('center_axis',(0.707106781186549,-0.707106781186546,-3.14018491736758E-15));
#753=DIRECTION('ref_axis',(-0.707106781186546,-0.707106781186549,-3.1401849173676E-15));
#754=DIRECTION('center_axis',(-1.,0.,0.));
#755=DIRECTION('ref_axis',(0.,0.707106781186557,0.707106781186538));
#756=DIRECTION('',(1.,0.,0.));
#757=DIRECTION('center_axis',(-0.707106781186549,0.707106781186546,3.14018491736755E-15));
#758=DIRECTION('ref_axis',(-0.707106781186546,-0.707106781186549,-3.14018491736757E-15));
#759=DIRECTION('center_axis',(0.,1.,0.));
#760=DIRECTION('ref_axis',(0.707106781186554,0.,0.707106781186541));
#761=DIRECTION('',(0.,-1.,0.));
#762=DIRECTION('center_axis',(0.707106781186549,0.707106781186546,0.));
#763=DIRECTION('ref_axis',(0.707106781186546,-0.707106781186549,0.));
#764=DIRECTION('center_axis',(1.,0.,0.));
#765=DIRECTION('ref_axis',(0.,-0.707106781186557,0.707106781186538));
#766=DIRECTION('',(-1.,0.,0.));
#767=DIRECTION('center_axis',(0.,0.,1.));
#768=DIRECTION('ref_axis',(1.,0.,0.));
#769=DIRECTION('',(0.780868809443031,-0.624695047554424,0.));
#770=DIRECTION('',(-0.624695047554424,-0.78086880944303,0.));
#771=DIRECTION('',(1.,0.,0.));
#772=DIRECTION('',(0.,-1.,0.));
#773=DIRECTION('',(-1.,0.,0.));
#774=DIRECTION('',(0.624695047554424,-0.78086880944303,0.));
#775=DIRECTION('',(-0.78086880944303,-0.624695047554424,0.));
#776=DIRECTION('',(-0.820523272621332,0.571613120114277,0.));
#777=DIRECTION('',(0.820523272621332,0.571613120114277,0.));
#778=DIRECTION('center_axis',(0.,0.,-1.));
#779=DIRECTION('ref_axis',(1.,0.,0.));
#780=DIRECTION('center_axis',(0.,0.,-1.));
#781=DIRECTION('ref_axis',(1.,0.,0.));
#782=DIRECTION('center_axis',(0.,0.,-1.));
#783=DIRECTION('ref_axis',(1.,0.,0.));
#784=DIRECTION('center_axis',(0.,0.,-1.));
#785=DIRECTION('ref_axis',(1.,0.,0.));
#786=DIRECTION('center_axis',(-0.78086880944303,-0.624695047554424,0.));
#787=DIRECTION('ref_axis',(0.441726104299386,-0.552157630374233,-0.707106781186548));
#788=DIRECTION('',(-0.78086880944303,-0.624695047554424,0.));
#789=DIRECTION('center_axis',(0.110431526074848,0.993883734673619,1.22603622892788E-15));
#790=DIRECTION('ref_axis',(0.993883734673619,-0.110431526074848,-1.22603622892788E-15));
#791=DIRECTION('center_axis',(0.999451078408703,0.033129169438428,0.));
#792=DIRECTION('ref_axis',(0.033129169438428,-0.999451078408703,0.));
#793=DIRECTION('center_axis',(0.624695047554424,-0.78086880944303,0.));
#794=DIRECTION('ref_axis',(0.552157630374233,0.441726104299386,-0.707106781186548));
#795=DIRECTION('',(0.624695047554424,-0.78086880944303,0.));
#796=DIRECTION('center_axis',(0.433188730489135,0.901303236306856,6.01170128246473E-16));
#797=DIRECTION('ref_axis',(-0.901303236306856,0.433188730489135,-2.88937301201942E-16));
#798=DIRECTION('center_axis',(0.780868809443031,-0.624695047554424,0.));
#799=DIRECTION('ref_axis',(0.441726104299386,0.552157630374233,-0.707106781186548));
#800=DIRECTION('center_axis',(0.110431526074848,-0.993883734673619,0.));
#801=DIRECTION('ref_axis',(-0.993883734673619,-0.110431526074848,0.));
#802=DIRECTION('',(0.780868809443031,-0.624695047554424,0.));
#803=DIRECTION('center_axis',(-0.999451078408703,0.033129169438428,4.59759583715635E-17));
#804=DIRECTION('ref_axis',(0.033129169438428,0.999451078408703,-6.15439547194767E-17));
#805=DIRECTION('center_axis',(-1.,0.,0.));
#806=DIRECTION('ref_axis',(0.,-0.707106781186547,-0.707106781186548));
#807=DIRECTION('',(-1.,0.,0.));
#808=DIRECTION('center_axis',(0.707106781186547,0.707106781186548,4.90653893338679E-16));
#809=DIRECTION('ref_axis',(0.707106781186548,-0.707106781186547,-4.90653893338679E-16));
#810=DIRECTION('center_axis',(0.,-1.,0.));
#811=DIRECTION('ref_axis',(0.707106781186547,0.,-0.707106781186547));
#812=DIRECTION('',(0.,-1.,0.));
#813=DIRECTION('center_axis',(-0.707106781186547,0.707106781186548,0.));
#814=DIRECTION('ref_axis',(0.707106781186548,0.707106781186547,0.));
#815=DIRECTION('center_axis',(1.,0.,0.));
#816=DIRECTION('ref_axis',(0.,0.707106781186547,-0.707106781186548));
#817=DIRECTION('',(1.,0.,0.));
#818=DIRECTION('center_axis',(-0.433188730489134,0.901303236306856,6.25404753198149E-16));
#819=DIRECTION('ref_axis',(-0.901303236306856,-0.433188730489134,-3.00585064123236E-16));
#820=DIRECTION('center_axis',(-0.624695047554424,-0.78086880944303,0.));
#821=DIRECTION('ref_axis',(0.552157630374233,-0.441726104299386,-0.707106781186548));
#822=DIRECTION('',(-0.624695047554424,-0.78086880944303,0.));
#823=DIRECTION('center_axis',(0.820523272621332,0.571613120114277,0.));
#824=DIRECTION('ref_axis',(-0.404191513448006,0.580197570191922,-0.707106781186548));
#825=DIRECTION('',(0.820523272621332,0.571613120114277,0.));
#826=DIRECTION('center_axis',(0.,-1.,-1.38777878078144E-15));
#827=DIRECTION('ref_axis',(-1.,-1.34168872640954E-30,9.66788615728833E-16));
#828=DIRECTION('center_axis',(-0.820523272621332,0.571613120114277,0.));
#829=DIRECTION('ref_axis',(-0.404191513448005,-0.580197570191922,-0.707106781186548));
#830=DIRECTION('',(-0.820523272621332,0.571613120114277,0.));
#831=DIRECTION('center_axis',(-0.78086880944303,-0.624695047554424,0.));
#832=DIRECTION('ref_axis',(-0.624695047554424,0.78086880944303,0.));
#833=DIRECTION('',(0.,0.,-1.));
#834=DIRECTION('',(-0.624695047554424,0.78086880944303,0.));
#835=DIRECTION('',(0.,0.,-1.));
#836=DIRECTION('center_axis',(-0.624695047554424,0.78086880944303,0.));
#837=DIRECTION('ref_axis',(0.78086880944303,0.624695047554424,0.));
#838=DIRECTION('',(0.,0.,-1.));
#839=DIRECTION('',(0.78086880944303,0.624695047554424,0.));
#840=DIRECTION('center_axis',(0.571613120114277,0.820523272621332,0.));
#841=DIRECTION('ref_axis',(0.820523272621332,-0.571613120114277,0.));
#842=DIRECTION('',(0.,0.,-1.));
#843=DIRECTION('',(0.820523272621332,-0.571613120114277,0.));
#844=DIRECTION('center_axis',(0.571613120114277,-0.820523272621332,0.));
#845=DIRECTION('ref_axis',(-0.820523272621332,-0.571613120114277,0.));
#846=DIRECTION('',(0.,0.,-1.));
#847=DIRECTION('',(-0.820523272621332,-0.571613120114277,0.));
#848=DIRECTION('center_axis',(-0.624695047554424,-0.780868809443031,0.));
#849=DIRECTION('ref_axis',(-0.780868809443031,0.624695047554424,0.));
#850=DIRECTION('',(0.,0.,-1.));
#851=DIRECTION('',(-0.780868809443031,0.624695047554424,0.));
#852=DIRECTION('center_axis',(-1.,0.,0.));
#853=DIRECTION('ref_axis',(0.,0.707106781186547,0.707106781186548));
#854=DIRECTION('center_axis',(-0.433188730489134,0.901303236306856,-6.25404753198149E-16));
#855=DIRECTION('ref_axis',(0.901303236306856,0.433188730489134,-3.00585064123236E-16));
#856=DIRECTION('',(-1.,0.,0.));
#857=DIRECTION('center_axis',(-0.707106781186547,0.707106781186548,0.));
#858=DIRECTION('ref_axis',(-0.707106781186548,-0.707106781186547,0.));
#859=DIRECTION('center_axis',(-0.780868809443031,0.624695047554424,0.));
#860=DIRECTION('ref_axis',(0.441726104299386,0.552157630374233,0.707106781186548));
#861=DIRECTION('center_axis',(-0.999451078408703,0.033129169438428,-4.59759583715635E-17));
#862=DIRECTION('ref_axis',(-0.033129169438428,-0.999451078408703,-6.15439547194767E-17));
#863=DIRECTION('center_axis',(0.110431526074848,-0.993883734673619,0.));
#864=DIRECTION('ref_axis',(0.993883734673619,0.110431526074848,0.));
#865=DIRECTION('center_axis',(-0.820523272621332,-0.571613120114277,0.));
#866=DIRECTION('ref_axis',(-0.404191513448006,0.580197570191922,0.707106781186548));
#867=DIRECTION('center_axis',(0.,-1.,1.38777878078144E-15));
#868=DIRECTION('ref_axis',(1.,1.34168872640954E-30,9.66788615728833E-16));
#869=DIRECTION('center_axis',(0.820523272621332,-0.571613120114277,0.));
#870=DIRECTION('ref_axis',(-0.404191513448005,-0.580197570191922,0.707106781186548));
#871=DIRECTION('center_axis',(0.999451078408703,0.033129169438428,0.));
#872=DIRECTION('ref_axis',(-0.033129169438428,0.999451078408703,0.));
#873=DIRECTION('center_axis',(0.78086880944303,0.624695047554424,0.));
#874=DIRECTION('ref_axis',(0.441726104299386,-0.552157630374233,0.707106781186548));
#875=DIRECTION('center_axis',(0.110431526074848,0.993883734673619,-1.22603622892788E-15));
#876=DIRECTION('ref_axis',(-0.993883734673619,0.110431526074848,-1.22603622892788E-15));
#877=DIRECTION('center_axis',(-0.624695047554424,0.78086880944303,0.));
#878=DIRECTION('ref_axis',(0.552157630374233,0.441726104299386,0.707106781186548));
#879=DIRECTION('center_axis',(0.433188730489135,0.901303236306856,-6.01170128246473E-16));
#880=DIRECTION('ref_axis',(0.901303236306856,-0.433188730489135,-2.88937301201942E-16));
#881=DIRECTION('center_axis',(1.,0.,0.));
#882=DIRECTION('ref_axis',(0.,-0.707106781186547,0.707106781186548));
#883=DIRECTION('',(1.,0.,0.));
#884=DIRECTION('center_axis',(0.707106781186547,0.707106781186548,-4.90653893338679E-16));
#885=DIRECTION('ref_axis',(-0.707106781186548,0.707106781186547,-4.90653893338679E-16));
#886=DIRECTION('center_axis',(0.624695047554424,0.78086880944303,0.));
#887=DIRECTION('ref_axis',(0.552157630374233,-0.441726104299386,0.707106781186548));
#888=DIRECTION('',(0.624695047554424,0.78086880944303,0.));
#889=DIRECTION('center_axis',(0.,1.,0.));
#890=DIRECTION('ref_axis',(0.707106781186547,0.,0.707106781186547));
#891=DIRECTION('',(0.,1.,0.));
#892=DIRECTION('center_axis',(0.,1.,0.));
#893=DIRECTION('ref_axis',(1.,0.,0.));
#894=DIRECTION('',(0.,0.,-1.));
#895=DIRECTION('center_axis',(-1.,0.,0.));
#896=DIRECTION('ref_axis',(0.,1.,0.));
#897=DIRECTION('',(0.,0.,-1.));
#898=DIRECTION('center_axis',(0.,-1.,0.));
#899=DIRECTION('ref_axis',(-1.,0.,0.));
#900=DIRECTION('',(0.,0.,-1.));
#901=DIRECTION('center_axis',(-0.78086880944303,0.624695047554424,0.));
#902=DIRECTION('ref_axis',(0.624695047554424,0.78086880944303,0.));
#903=DIRECTION('center_axis',(0.,0.,1.));
#904=DIRECTION('ref_axis',(1.,0.,0.));
#905=DIRECTION('',(0.,0.,1.));
#906=DIRECTION('center_axis',(0.,0.,1.));
#907=DIRECTION('ref_axis',(1.,0.,0.));
#908=DIRECTION('',(0.,0.,1.));
#909=DIRECTION('center_axis',(0.,0.,1.));
#910=DIRECTION('ref_axis',(1.,0.,0.));
#911=DIRECTION('',(0.,0.,1.));
#912=DIRECTION('center_axis',(0.,0.,1.));
#913=DIRECTION('ref_axis',(1.,0.,0.));
#914=DIRECTION('',(0.,0.,1.));
#915=CARTESIAN_POINT('',(0.,0.,0.));
#916=CARTESIAN_POINT('Origin',(0.,0.,7.5));
#917=CARTESIAN_POINT('',(-5.9,3.4,7.5));
#918=CARTESIAN_POINT('',(-5.9,-3.4,7.5));
#919=CARTESIAN_POINT('',(-5.9,1.75,7.5));
#920=CARTESIAN_POINT('',(5.9,3.4,7.5));
#921=CARTESIAN_POINT('',(3.,3.4,7.5));
#922=CARTESIAN_POINT('',(5.9,-3.4,7.5));
#923=CARTESIAN_POINT('',(5.9,-1.75,7.5));
#924=CARTESIAN_POINT('',(-3.,-3.4,7.5));
#925=CARTESIAN_POINT('',(0.713822110266108,-0.993507680780183,7.5));
#926=CARTESIAN_POINT('',(0.4875549003809,-0.812493912872018,7.5));
#927=CARTESIAN_POINT('',(0.230540779723399,-0.606882616346017,7.5));
#928=CARTESIAN_POINT('',(2.13995482997207,0.,7.5));
#929=CARTESIAN_POINT('',(1.37247062846591,-0.534663736788134,7.5));
#930=CARTESIAN_POINT('',(0.713822110266108,0.993507680780183,7.5));
#931=CARTESIAN_POINT('',(0.731035778743326,0.981515871315181,7.5));
#932=CARTESIAN_POINT('',(0.4875549003809,0.812493912872018,7.5));
#933=CARTESIAN_POINT('',(0.171975619015172,0.560030487779435,7.5));
#934=CARTESIAN_POINT('',(0.833550027102236,0.380000004470348,7.5));
#935=CARTESIAN_POINT('',(0.815579288816309,0.402463427327757,7.5));
#936=CARTESIAN_POINT('',(-1.08000001490116,0.380000004470348,7.5));
#937=CARTESIAN_POINT('',(-0.500000007450581,0.380000004470348,7.5));
#938=CARTESIAN_POINT('',(-1.08000001490116,-0.380000004470348,7.5));
#939=CARTESIAN_POINT('',(-1.08000001490116,-0.150000002235174,7.5));
#940=CARTESIAN_POINT('',(0.833550027102236,-0.380000004470348,7.5));
#941=CARTESIAN_POINT('',(0.500000007450581,-0.380000004470348,7.5));
#942=CARTESIAN_POINT('',(0.615579285836077,-0.652463431053047,7.5));
#943=CARTESIAN_POINT('',(-5.66000008195639,-3.00000004470348,7.5));
#944=CARTESIAN_POINT('Origin',(-5.50000008195639,-3.00000004470348,7.5));
#945=CARTESIAN_POINT('',(5.34000008195639,-3.00000004470348,7.5));
#946=CARTESIAN_POINT('Origin',(5.50000008195639,-3.00000004470348,7.5));
#947=CARTESIAN_POINT('',(-5.66000008195639,3.00000004470348,7.5));
#948=CARTESIAN_POINT('Origin',(-5.50000008195639,3.00000004470348,7.5));
#949=CARTESIAN_POINT('',(5.34000008195639,3.00000004470348,7.5));
#950=CARTESIAN_POINT('Origin',(5.50000008195639,3.00000004470348,7.5));
#951=CARTESIAN_POINT('Origin',(-5.9,1.75,7.6));
#952=CARTESIAN_POINT('',(-5.9,-3.4,7.7));
#953=CARTESIAN_POINT('',(-5.9,3.4,7.7));
#954=CARTESIAN_POINT('',(-5.9,1.75,7.7));
#955=CARTESIAN_POINT('Origin',(-5.9,3.4,7.6));
#956=CARTESIAN_POINT('Origin',(-5.9,-3.4,7.6));
#957=CARTESIAN_POINT('Origin',(3.,3.4,7.6));
#958=CARTESIAN_POINT('',(5.9,3.4,7.7));
#959=CARTESIAN_POINT('',(3.,3.4,7.7));
#960=CARTESIAN_POINT('Origin',(5.9,3.4,7.6));
#961=CARTESIAN_POINT('Origin',(5.9,-1.75,7.6));
#962=CARTESIAN_POINT('',(5.9,-3.4,7.7));
#963=CARTESIAN_POINT('',(5.9,-1.75,7.7));
#964=CARTESIAN_POINT('Origin',(5.9,-3.4,7.6));
#965=CARTESIAN_POINT('Origin',(-3.,-3.4,7.6));
#966=CARTESIAN_POINT('',(-3.,-3.4,7.7));
#967=CARTESIAN_POINT('Origin',(0.,0.,7.7));
#968=CARTESIAN_POINT('',(0.4875549003809,-0.812493912872018,7.7));
#969=CARTESIAN_POINT('',(0.713822110266108,-0.993507680780183,7.7));
#970=CARTESIAN_POINT('',(0.230540779723399,-0.606882616346017,7.7));
#971=CARTESIAN_POINT('',(0.833550027102236,-0.380000004470348,7.7));
#972=CARTESIAN_POINT('',(0.615579285836077,-0.652463431053047,7.7));
#973=CARTESIAN_POINT('',(-1.08000001490116,-0.380000004470348,7.7));
#974=CARTESIAN_POINT('',(0.500000007450581,-0.380000004470348,7.7));
#975=CARTESIAN_POINT('',(-1.08000001490116,0.380000004470348,7.7));
#976=CARTESIAN_POINT('',(-1.08000001490116,-0.150000002235174,7.7));
#977=CARTESIAN_POINT('',(0.833550027102236,0.380000004470348,7.7));
#978=CARTESIAN_POINT('',(-0.500000007450581,0.380000004470348,7.7));
#979=CARTESIAN_POINT('',(0.4875549003809,0.812493912872018,7.7));
#980=CARTESIAN_POINT('',(0.815579288816309,0.402463427327757,7.7));
#981=CARTESIAN_POINT('',(0.713822110266108,0.993507680780183,7.7));
#982=CARTESIAN_POINT('',(0.171975619015172,0.560030487779435,7.7));
#983=CARTESIAN_POINT('',(2.13995482997207,-3.33066907387547E-16,7.7));
#984=CARTESIAN_POINT('',(0.731035778743326,0.981515871315181,7.7));
#985=CARTESIAN_POINT('',(1.37247062846591,-0.534663736788134,7.7));
#986=CARTESIAN_POINT('',(-5.66000008195639,-3.00000004470348,7.7));
#987=CARTESIAN_POINT('Origin',(-5.50000008195639,-3.00000004470348,7.7));
#988=CARTESIAN_POINT('',(5.34000008195639,-3.00000004470348,7.7));
#989=CARTESIAN_POINT('Origin',(5.50000008195639,-3.00000004470348,7.7));
#990=CARTESIAN_POINT('',(-5.66000008195639,3.00000004470348,7.7));
#991=CARTESIAN_POINT('Origin',(-5.50000008195639,3.00000004470348,7.7));
#992=CARTESIAN_POINT('',(5.34000008195639,3.00000004470348,7.7));
#993=CARTESIAN_POINT('Origin',(5.50000008195639,3.00000004470348,7.7));
#994=CARTESIAN_POINT('Origin',(0.171975619015172,0.560030487779435,7.58));
#995=CARTESIAN_POINT('',(0.717130330357151,0.893704269054093,7.58));
#996=CARTESIAN_POINT('',(0.600000008940697,0.800000011920929,7.58));
#997=CARTESIAN_POINT('',(0.221951222819526,0.497560983023992,7.58));
#998=CARTESIAN_POINT('Origin',(0.4875549003809,0.812493912872018,7.58));
#999=CARTESIAN_POINT('Origin',(0.713822110266108,0.993507680780183,7.58));
#1000=CARTESIAN_POINT('Origin',(0.815579288816309,0.402463427327757,7.58));
#1001=CARTESIAN_POINT('',(1.00000001490116,0.300000004470348,7.58));
#1002=CARTESIAN_POINT('',(0.878048793571751,0.452439031132111,7.58));
#1003=CARTESIAN_POINT('Origin',(0.833550027102236,0.380000004470348,7.58));
#1004=CARTESIAN_POINT('Origin',(0.230540779723399,-0.606882616346017,7.58));
#1005=CARTESIAN_POINT('',(0.600000008940697,-0.800000011920929,7.58));
#1006=CARTESIAN_POINT('Origin',(0.4875549003809,-0.812493912872018,7.58));
#1007=CARTESIAN_POINT('',(0.717130330357151,-0.893704269054093,7.58));
#1008=CARTESIAN_POINT('',(0.280516383527753,-0.544413111590575,7.58));
#1009=CARTESIAN_POINT('Origin',(0.713822110266108,-0.993507680780183,7.58));
#1010=CARTESIAN_POINT('Origin',(-0.500000007450581,0.380000004470348,7.58));
#1011=CARTESIAN_POINT('',(-1.00000001490116,0.300000004470348,7.58));
#1012=CARTESIAN_POINT('',(-0.500000007450581,0.300000004470348,7.58));
#1013=CARTESIAN_POINT('Origin',(-1.08000001490116,0.380000004470348,7.58));
#1014=CARTESIAN_POINT('Origin',(-1.08000001490116,-0.150000002235174,7.58));
#1015=CARTESIAN_POINT('',(-1.00000001490116,-0.300000004470348,7.58));
#1016=CARTESIAN_POINT('',(-1.00000001490116,-0.150000002235174,7.58));
#1017=CARTESIAN_POINT('Origin',(-1.08000001490116,-0.380000004470348,7.58));
#1018=CARTESIAN_POINT('Origin',(0.500000007450581,-0.380000004470348,7.58));
#1019=CARTESIAN_POINT('',(1.00000001490116,-0.300000004470348,7.58));
#1020=CARTESIAN_POINT('',(0.500000007450581,-0.300000004470348,7.58));
#1021=CARTESIAN_POINT('Origin',(0.833550027102236,-0.380000004470348,7.58));
#1022=CARTESIAN_POINT('Origin',(0.615579285836077,-0.652463431053047,7.58));
#1023=CARTESIAN_POINT('',(0.678048790591519,-0.702439034857401,7.58));
#1024=CARTESIAN_POINT('Origin',(1.37247062846591,-0.534663736788134,7.58));
#1025=CARTESIAN_POINT('',(2.00000002980232,-1.11022302462516E-16,7.58));
#1026=CARTESIAN_POINT('',(1.32674157885677,-0.469021874978428,7.58));
#1027=CARTESIAN_POINT('Origin',(2.13995482997207,-1.11022302462516E-16,
7.58));
#1028=CARTESIAN_POINT('Origin',(0.731035778743326,0.981515871315181,7.58));
#1029=CARTESIAN_POINT('',(0.685306729134184,0.915874009505474,7.58));
#1030=CARTESIAN_POINT('Origin',(1.00000001490116,0.300000004470348,7.7));
#1031=CARTESIAN_POINT('',(0.600000008940697,0.800000011920929,7.62));
#1032=CARTESIAN_POINT('',(0.600000008940697,0.800000011920929,7.7));
#1033=CARTESIAN_POINT('',(1.00000001490116,0.300000004470348,7.62));
#1034=CARTESIAN_POINT('',(0.878048793571751,0.452439031132111,7.62));
#1035=CARTESIAN_POINT('',(1.00000001490116,0.300000004470348,7.7));
#1036=CARTESIAN_POINT('Origin',(0.600000008940697,0.800000011920929,7.7));
#1037=CARTESIAN_POINT('',(0.717130330357151,0.893704269054093,7.62));
#1038=CARTESIAN_POINT('',(0.717130330357151,0.893704269054093,7.7));
#1039=CARTESIAN_POINT('',(0.221951222819526,0.497560983023992,7.62));
#1040=CARTESIAN_POINT('Origin',(0.717130330357151,0.893704269054093,7.7));
#1041=CARTESIAN_POINT('',(2.00000002980232,-1.11022302462516E-16,7.62));
#1042=CARTESIAN_POINT('',(2.00000002980232,-1.11022302462516E-16,7.7));
#1043=CARTESIAN_POINT('',(0.685306729134184,0.915874009505474,7.62));
#1044=CARTESIAN_POINT('Origin',(2.00000002980232,0.,7.7));
#1045=CARTESIAN_POINT('',(0.717130330357151,-0.893704269054093,7.62));
#1046=CARTESIAN_POINT('',(0.717130330357151,-0.893704269054093,7.7));
#1047=CARTESIAN_POINT('',(1.32674157885677,-0.469021874978428,7.62));
#1048=CARTESIAN_POINT('Origin',(0.717130330357151,-0.893704269054093,7.7));
#1049=CARTESIAN_POINT('',(0.600000008940697,-0.800000011920929,7.62));
#1050=CARTESIAN_POINT('',(0.600000008940697,-0.800000011920929,7.7));
#1051=CARTESIAN_POINT('',(0.280516383527753,-0.544413111590575,7.62));
#1052=CARTESIAN_POINT('Origin',(0.500000007450581,-0.380000004470348,7.62));
#1053=CARTESIAN_POINT('',(1.00000001490116,-0.300000004470348,7.62));
#1054=CARTESIAN_POINT('Origin',(0.833550027102236,-0.380000004470348,7.62));
#1055=CARTESIAN_POINT('',(-1.00000001490116,-0.300000004470348,7.62));
#1056=CARTESIAN_POINT('',(0.500000007450581,-0.300000004470348,7.62));
#1057=CARTESIAN_POINT('Origin',(-1.08000001490116,-0.380000004470348,7.62));
#1058=CARTESIAN_POINT('Origin',(0.230540779723399,-0.606882616346017,7.62));
#1059=CARTESIAN_POINT('Origin',(0.713822110266108,-0.993507680780183,7.62));
#1060=CARTESIAN_POINT('Origin',(0.4875549003809,-0.812493912872018,7.62));
#1061=CARTESIAN_POINT('Origin',(1.37247062846591,-0.534663736788134,7.62));
#1062=CARTESIAN_POINT('Origin',(2.13995482997207,-1.11022302462516E-16,
7.62));
#1063=CARTESIAN_POINT('Origin',(0.731035778743326,0.981515871315181,7.62));
#1064=CARTESIAN_POINT('Origin',(0.713822110266108,0.993507680780183,7.62));
#1065=CARTESIAN_POINT('Origin',(0.171975619015172,0.560030487779435,7.62));
#1066=CARTESIAN_POINT('Origin',(0.4875549003809,0.812493912872018,7.62));
#1067=CARTESIAN_POINT('Origin',(0.815579288816309,0.402463427327757,7.62));
#1068=CARTESIAN_POINT('Origin',(0.833550027102236,0.380000004470348,7.62));
#1069=CARTESIAN_POINT('Origin',(-0.500000007450581,0.380000004470348,7.62));
#1070=CARTESIAN_POINT('',(-1.00000001490116,0.300000004470348,7.62));
#1071=CARTESIAN_POINT('',(-0.500000007450581,0.300000004470348,7.62));
#1072=CARTESIAN_POINT('Origin',(-1.08000001490116,0.380000004470348,7.62));
#1073=CARTESIAN_POINT('Origin',(0.615579285836077,-0.652463431053047,7.62));
#1074=CARTESIAN_POINT('',(0.678048790591519,-0.702439034857401,7.62));
#1075=CARTESIAN_POINT('Origin',(-1.08000001490116,-0.150000002235174,7.62));
#1076=CARTESIAN_POINT('',(-1.00000001490116,-0.150000002235174,7.62));
#1077=CARTESIAN_POINT('Origin',(-1.00000001490116,0.300000004470348,7.7));
#1078=CARTESIAN_POINT('',(-1.00000001490116,0.300000004470348,7.7));
#1079=CARTESIAN_POINT('Origin',(-1.00000001490116,-0.300000004470348,7.7));
#1080=CARTESIAN_POINT('',(-1.00000001490116,-0.300000004470348,7.7));
#1081=CARTESIAN_POINT('Origin',(1.00000001490116,-0.300000004470348,7.7));
#1082=CARTESIAN_POINT('',(1.00000001490116,-0.300000004470348,7.7));
#1083=CARTESIAN_POINT('Origin',(0.600000008940697,-0.800000011920929,7.7));
#1084=CARTESIAN_POINT('Origin',(-5.50000008195639,-3.00000004470348,7.5));
#1085=CARTESIAN_POINT('',(-5.66000008195639,-3.00000004470348,7.5));
#1086=CARTESIAN_POINT('Origin',(5.50000008195639,-3.00000004470348,7.5));
#1087=CARTESIAN_POINT('',(5.34000008195639,-3.00000004470348,7.5));
#1088=CARTESIAN_POINT('Origin',(-5.50000008195639,3.00000004470348,7.5));
#1089=CARTESIAN_POINT('',(-5.66000008195639,3.00000004470348,7.5));
#1090=CARTESIAN_POINT('Origin',(5.50000008195639,3.00000004470348,7.5));
#1091=CARTESIAN_POINT('',(5.34000008195639,3.00000004470348,7.5));
#1092=UNCERTAINTY_MEASURE_WITH_UNIT(LENGTH_MEASURE(0.001),#1096,
'DISTANCE_ACCURACY_VALUE',
'Maximum model space distance between geometric entities at asserted c
onnectivities');
#1093=UNCERTAINTY_MEASURE_WITH_UNIT(LENGTH_MEASURE(0.001),#1096,
'DISTANCE_ACCURACY_VALUE',
'Maximum model space distance between geometric entities at asserted c
onnectivities');
#1094=(
GEOMETRIC_REPRESENTATION_CONTEXT(3)
GLOBAL_UNCERTAINTY_ASSIGNED_CONTEXT((#1092))
GLOBAL_UNIT_ASSIGNED_CONTEXT((#1096,#1098,#1099))
REPRESENTATION_CONTEXT('','3D')
);
#1095=(
GEOMETRIC_REPRESENTATION_CONTEXT(3)
GLOBAL_UNCERTAINTY_ASSIGNED_CONTEXT((#1093))
GLOBAL_UNIT_ASSIGNED_CONTEXT((#1096,#1098,#1099))
REPRESENTATION_CONTEXT('','3D')
);
#1096=(
LENGTH_UNIT()
NAMED_UNIT(*)
SI_UNIT(.CENTI.,.METRE.)
);
#1097=(
LENGTH_UNIT()
NAMED_UNIT(*)
SI_UNIT($,.METRE.)
);
#1098=(
NAMED_UNIT(*)
PLANE_ANGLE_UNIT()
SI_UNIT($,.RADIAN.)
);
#1099=(
NAMED_UNIT(*)
SI_UNIT($,.STERADIAN.)
SOLID_ANGLE_UNIT()
);
#1100=SHAPE_DEFINITION_REPRESENTATION(#1101,#1102);
#1101=PRODUCT_DEFINITION_SHAPE('',$,#1104);
#1102=SHAPE_REPRESENTATION('',(#654),#1094);
#1103=PRODUCT_DEFINITION_CONTEXT('part definition',#1108,'design');
#1104=PRODUCT_DEFINITION('export body bilbo','export body bilbo',#1105,
#1103);
#1105=PRODUCT_DEFINITION_FORMATION('',$,#1110);
#1106=PRODUCT_RELATED_PRODUCT_CATEGORY('export body bilbo',
'export body bilbo',(#1110));
#1107=APPLICATION_PROTOCOL_DEFINITION('international standard',
'automotive_design',2009,#1108);
#1108=APPLICATION_CONTEXT(
'Core Data for Automotive Mechanical Design Process');
#1109=PRODUCT_CONTEXT('part definition',#1108,'mechanical');
#1110=PRODUCT('export body bilbo','export body bilbo',$,(#1109));
#1111=PRESENTATION_STYLE_ASSIGNMENT((#1116));
#1112=PRESENTATION_STYLE_ASSIGNMENT((#1117));
#1113=PRESENTATION_STYLE_ASSIGNMENT((#1118));
#1114=PRESENTATION_STYLE_ASSIGNMENT((#1119));
#1115=PRESENTATION_STYLE_ASSIGNMENT((#1120));
#1116=SURFACE_STYLE_USAGE(.BOTH.,#1121);
#1117=SURFACE_STYLE_USAGE(.BOTH.,#1122);
#1118=SURFACE_STYLE_USAGE(.BOTH.,#1123);
#1119=SURFACE_STYLE_USAGE(.BOTH.,#1124);
#1120=SURFACE_STYLE_USAGE(.BOTH.,#1125);
#1121=SURFACE_SIDE_STYLE('',(#1126));
#1122=SURFACE_SIDE_STYLE('',(#1127));
#1123=SURFACE_SIDE_STYLE('',(#1128));
#1124=SURFACE_SIDE_STYLE('',(#1129));
#1125=SURFACE_SIDE_STYLE('',(#1130));
#1126=SURFACE_STYLE_FILL_AREA(#1131);
#1127=SURFACE_STYLE_FILL_AREA(#1132);
#1128=SURFACE_STYLE_FILL_AREA(#1133);
#1129=SURFACE_STYLE_FILL_AREA(#1134);
#1130=SURFACE_STYLE_FILL_AREA(#1135);
#1131=FILL_AREA_STYLE('ABS (White)',(#1136));
#1132=FILL_AREA_STYLE('Paint - Enamel Glossy (Black)',(#1137));
#1133=FILL_AREA_STYLE('Polymide (Kapton)',(#1138));
#1134=FILL_AREA_STYLE('Carbon Fiber - Plain',(#1139));
#1135=FILL_AREA_STYLE('Tough 2000 (with Formlabs SLA 3D Printers)',(#1140));
#1136=FILL_AREA_STYLE_COLOUR('ABS (White)',#1141);
#1137=FILL_AREA_STYLE_COLOUR('Paint - Enamel Glossy (Black)',#1142);
#1138=FILL_AREA_STYLE_COLOUR('Polymide (Kapton)',#1143);
#1139=FILL_AREA_STYLE_COLOUR('Carbon Fiber - Plain',#1144);
#1140=FILL_AREA_STYLE_COLOUR(
'Tough 2000 (with Formlabs SLA 3D Printers)',#1145);
#1141=COLOUR_RGB('ABS (White)',0.964705882352941,0.964705882352941,0.952941176470588);
#1142=COLOUR_RGB('Paint - Enamel Glossy (Black)',0.0980392156862745,0.0980392156862745,
0.0980392156862745);
#1143=COLOUR_RGB('Polymide (Kapton)',0.784313725490196,0.556862745098039,
0.0274509803921569);
#1144=COLOUR_RGB('Carbon Fiber - Plain',0.0980392156862745,0.0980392156862745,
0.0980392156862745);
#1145=COLOUR_RGB('Tough 2000 (with Formlabs SLA 3D Printers)',0.247058823529412,
0.247058823529412,0.247058823529412);
ENDSEC;
END-ISO-10303-21;
